      <svg
            className="svg"
            width="69"
            height="76"
            viewBox="0 0 69 76"
            fill="none"
            xmlns="http://www.w3.org/2000/svg"
          >
            <path
              d="M61.5791 28.8162C68.9863 33.4272 68.7618 44.2842 61.1702 48.585L18.9085 72.5272C11.1502 76.9225 1.55805 71.1985 1.74243 62.2836L2.76849 12.6723C2.95287 3.75736 12.7735 -1.56517 20.3434 3.1471L61.5791 28.8162Z"
              stroke="#2F80ED"
              strokeOpacity="0.5"
            />
            <path
              d="M14.7207 40.9268H19.4375V42H13.4014V32.0469H14.7207V40.9268ZM20.4014 38.2334C20.4014 37.5088 20.5426 36.8571 20.8252 36.2783C21.1123 35.6995 21.5088 35.2529 22.0146 34.9385C22.5251 34.624 23.1061 34.4668 23.7578 34.4668C24.765 34.4668 25.5785 34.8154 26.1982 35.5127C26.8226 36.21 27.1348 37.1374 27.1348 38.2949V38.3838C27.1348 39.1038 26.9958 39.751 26.7178 40.3252C26.4443 40.8949 26.0501 41.3392 25.5352 41.6582C25.0247 41.9772 24.4368 42.1367 23.7715 42.1367C22.7689 42.1367 21.9554 41.7881 21.3311 41.0908C20.7113 40.3936 20.4014 39.4707 20.4014 38.3223V38.2334ZM21.6729 38.3838C21.6729 39.2041 21.862 39.8626 22.2402 40.3594C22.623 40.8561 23.1335 41.1045 23.7715 41.1045C24.4141 41.1045 24.9245 40.8538 25.3027 40.3525C25.681 39.8467 25.8701 39.1403 25.8701 38.2334C25.8701 37.4222 25.6764 36.766 25.2891 36.2646C24.9062 35.7588 24.3958 35.5059 23.7578 35.5059C23.1335 35.5059 22.6299 35.7542 22.2471 36.251C21.8643 36.7477 21.6729 37.4587 21.6729 38.3838ZM28.4199 38.2402C28.4199 37.0872 28.6865 36.1712 29.2197 35.4922C29.7529 34.8086 30.4593 34.4668 31.3389 34.4668C32.2412 34.4668 32.9453 34.7858 33.4512 35.4238L33.5127 34.6035H34.668V41.8223C34.668 42.7793 34.3831 43.5335 33.8135 44.085C33.2484 44.6364 32.4873 44.9121 31.5303 44.9121C30.9971 44.9121 30.4753 44.7982 29.9648 44.5703C29.4544 44.3424 29.0648 44.0303 28.7959 43.6338L29.4521 42.875C29.9945 43.5449 30.6576 43.8799 31.4414 43.8799C32.0566 43.8799 32.5352 43.7067 32.877 43.3604C33.2233 43.014 33.3965 42.5264 33.3965 41.8975V41.2617C32.8906 41.8451 32.2002 42.1367 31.3252 42.1367C30.4593 42.1367 29.7575 41.7881 29.2197 41.0908C28.6865 40.3936 28.4199 39.4434 28.4199 38.2402ZM29.6914 38.3838C29.6914 39.2178 29.8623 39.874 30.2041 40.3525C30.5459 40.8265 31.0244 41.0635 31.6396 41.0635C32.4372 41.0635 33.0228 40.7012 33.3965 39.9766V36.5996C33.0091 35.8932 32.4281 35.54 31.6533 35.54C31.0381 35.54 30.5573 35.7793 30.2109 36.2578C29.8646 36.7363 29.6914 37.445 29.6914 38.3838ZM37.9561 42H36.6914V34.6035H37.9561V42ZM36.5889 32.6416C36.5889 32.4365 36.6504 32.2633 36.7734 32.1221C36.901 31.9808 37.0879 31.9102 37.334 31.9102C37.5801 31.9102 37.7669 31.9808 37.8945 32.1221C38.0221 32.2633 38.0859 32.4365 38.0859 32.6416C38.0859 32.8467 38.0221 33.0176 37.8945 33.1543C37.7669 33.291 37.5801 33.3594 37.334 33.3594C37.0879 33.3594 36.901 33.291 36.7734 33.1543C36.6504 33.0176 36.5889 32.8467 36.5889 32.6416ZM41.1826 34.6035L41.2236 35.5332C41.7887 34.8223 42.527 34.4668 43.4385 34.4668C45.0016 34.4668 45.79 35.3486 45.8037 37.1123V42H44.5391V37.1055C44.5345 36.5723 44.4115 36.1781 44.1699 35.9229C43.9329 35.6676 43.5615 35.54 43.0557 35.54C42.6455 35.54 42.2855 35.6494 41.9756 35.8682C41.6657 36.0869 41.4242 36.374 41.251 36.7295V42H39.9863V34.6035H41.1826Z"
              fill="#2F80ED"
            />
          </svg>